<?xml version="1.0" encoding="UTF-8" standalone="no"?>
<!-- Created with Inkscape (http://www.inkscape.org/) -->
<svg xmlns:inkscape="http://www.inkscape.org/namespaces/inkscape" xmlns:rdf="http://www.w3.org/1999/02/22-rdf-syntax-ns#" xmlns="http://www.w3.org/2000/svg" xmlns:xlink="http://www.w3.org/1999/xlink" xmlns:ns1="http://sozi.baierouge.fr" xmlns:cc="http://creativecommons.org/ns#" xmlns:dc="http://purl.org/dc/elements/1.1/" xmlns:sodipodi="http://sodipodi.sourceforge.net/DTD/sodipodi-0.dtd" id="svg4468" sodipodi:docname="Jumping Pixel Guy.svg" viewBox="0 0 384.18 434.35" version="1.1" inkscape:version="0.48.5 r10040">
  <sodipodi:namedview id="base" bordercolor="#666666" inkscape:pageshadow="2" inkscape:window-y="139" fit-margin-left="0" pagecolor="#ffffff" fit-margin-top="0" inkscape:window-maximized="0" inkscape:zoom="0.98994949" inkscape:window-x="1920" inkscape:window-height="1061" showgrid="false" borderopacity="1.0" inkscape:current-layer="g5196" inkscape:cx="136.89895" inkscape:cy="155.18913" fit-margin-right="0" fit-margin-bottom="0" inkscape:window-width="1173" inkscape:pageopacity="0.0" inkscape:document-units="px"/>
  <g id="layer1" inkscape:label="Layer 1" inkscape:groupmode="layer" transform="translate(-378.87 -88.353)">
    <g id="g4419" transform="translate(-585.87 -68.389)">
      <g id="g5196" transform="matrix(1.137 0 0 1.0475 841.32 -188.42)">
        <rect id="rect3600" style="color:#000000;fill:#ff9955" height="151.25" width="139.82" y="386.74" x="200.09"/>
        <rect id="rect5048" style="color:#000000;fill:#ff9955" height="49.481" width="112.34" y="437.62" x="270.97"/>
        <rect id="rect5068" style="color:#000000;fill:#ff9955" height="40" width="40" y="426.65" x="177.14"/>
        <rect id="rect5070" style="color:#000000;fill:#552200" height="23.066" width="40.208" y="410.34" x="185.6"/>
        <rect id="rect5072" style="color:#000000;fill:#552200" height="26.359" width="64.839" y="387.27" x="196.81"/>
        <rect id="rect5078" style="color:#000000;fill:#552200" height="18.096" width="40.954" y="476.48" x="308.33"/>
        <rect id="rect5080" style="color:#000000;fill:#552200" height="17.143" width="34.286" y="484.09" x="289.54"/>
        <rect id="rect5250" style="color:#000000;fill:#0096ff" height="60" width="140" y="329.51" x="200"/>
        <rect id="rect5252" style="color:#000000;fill:#0096ff" height="20" width="200" y="369.51" x="171.43"/>
        <rect id="rect5254" style="color:#000000;fill:#0096ff" height="137.14" width="194.29" y="523.79" x="177.14"/>
        <rect id="rect5256" style="color:#000000;fill:#ff0000" height="94.383" width="34.383" y="523.74" x="222.81"/>
        <rect id="rect5258" style="color:#000000;fill:#ffff00" height="29.755" width="24.47" y="556.92" x="227.56"/>
        <rect id="rect5260" style="color:#000000;fill:#ff0000" height="51.473" width="108.62" y="609.48" x="222.84"/>
        <rect id="rect5262" style="color:#000000;fill:#ff0000" height="102.7" width="36.315" y="523.53" x="294.7"/>
        <rect id="rect5264" style="color:#000000;fill:#ffff00" height="28.356" width="22.641" y="558.18" x="302.12"/>
        <rect id="rect5266" style="color:#000000;fill:#0096ff" height="84.956" width="53.527" y="647.03" x="157.52"/>
        <rect id="rect5268" style="color:#000000;fill:#441b00" height="35.04" width="72.571" y="709.13" x="156.77"/>
        <rect id="rect5270" style="color:#000000;fill:#0096ff" height="95.891" width="47.319" y="638.7" x="340.63"/>
        <rect id="rect5272" style="color:#000000;fill:#441b00" height="34.575" width="66.527" y="709.6" x="339.65"/>
        <rect id="rect5167" style="color:#000000;fill:#ff9955" height="49.481" width="42.919" y="558.03" x="127.2"/>
        <rect id="rect5274" style="color:#000000;fill:#0096ff" height="51.224" width="65.509" y="535.9" x="126.69"/>
        <rect id="rect5165" style="color:#000000;fill:#ff9955" height="49.481" width="42.919" y="556" x="378.18"/>
        <rect id="rect5276" style="color:#000000;fill:#0096ff" height="51.429" width="68.571" y="531.69" x="353.56"/>
        <path id="path5192" sodipodi:rx="12.857142" sodipodi:ry="12.857142" style="color:#000000;fill:#ffffff" sodipodi:type="arc" d="m314.29 425.22c0 7.1008-5.7563 12.857-12.857 12.857-7.1008 0-12.857-5.7563-12.857-12.857 0-7.1008 5.7563-12.857 12.857-12.857 7.1008 0 12.857 5.7563 12.857 12.857z" transform="matrix(1.6512 0 0 1.6512 -185.08 -273.87)" sodipodi:cy="425.21933" sodipodi:cx="301.42856"/>
        <path id="path5455" sodipodi:rx="12.857142" sodipodi:ry="12.857142" style="color:#000000;fill:#2b2b2b" sodipodi:type="arc" d="m314.29 425.22a12.857 12.857 0 1 1 -25.714 0 12.857 12.857 0 1 1 25.714 0z" transform="translate(17.343 -.50796)" sodipodi:cy="425.21933" sodipodi:cx="301.42856"/>
        <rect id="rect5194" style="color:#000000;fill:#552200" height="17.143" width="34.286" y="496.47" x="276.15"/>
      </g>
    </g>
  </g>
  <metadata>
    <rdf:RDF>
      <cc:Work>
        <dc:format>image/svg+xml</dc:format>
        <dc:type rdf:resource="http://purl.org/dc/dcmitype/StillImage"/>
        <cc:license rdf:resource="http://creativecommons.org/licenses/publicdomain/"/>
        <dc:publisher>
          <cc:Agent rdf:about="http://openclipart.org/">
            <dc:title>Openclipart</dc:title>
          </cc:Agent>
        </dc:publisher>
      </cc:Work>
      <cc:License rdf:about="http://creativecommons.org/licenses/publicdomain/">
        <cc:permits rdf:resource="http://creativecommons.org/ns#Reproduction"/>
        <cc:permits rdf:resource="http://creativecommons.org/ns#Distribution"/>
        <cc:permits rdf:resource="http://creativecommons.org/ns#DerivativeWorks"/>
      </cc:License>
    </rdf:RDF>
  </metadata>
</svg>
